<?xml version="1.0" encoding="UTF-8"?>
<svg version="1.1" xmlns="http://www.w3.org/2000/svg" width="400" height="400">
<path d="M0 0 C132 0 264 0 400 0 C400 132 400 264 400 400 C268 400 136 400 0 400 C0 268 0 136 0 0 Z " fill="#1A1D22" transform="translate(0,0)"/>
<path d="M0 0 C1.03769531 0.62261719 2.07539063 1.24523437 3.14453125 1.88671875 C3.72041992 2.22993164 4.29630859 2.57314453 4.88964844 2.92675781 C6.18156741 3.69814306 7.47064009 4.47430876 8.75732422 5.25439453 C11.23655872 6.74193523 13.73795668 8.18777025 16.2421875 9.6328125 C18.06422166 10.69589579 19.88583851 11.75969464 21.70703125 12.82421875 C22.5889917 13.33122314 23.47095215 13.83822754 24.37963867 14.3605957 C25.20439697 14.84874756 26.02915527 15.33689941 26.87890625 15.83984375 C27.6172168 16.27071289 28.35552734 16.70158203 29.11621094 17.14550781 C31.72161548 19.16763346 32.79187178 21.30469004 33.21772766 24.57810974 C33.22233505 25.28250687 33.22694244 25.98690399 33.23168945 26.71264648 C33.24122147 27.51705673 33.25075348 28.32146698 33.26057434 29.1502533 C33.25920723 30.4409951 33.25920723 30.4409951 33.2578125 31.7578125 C33.26209763 32.65033218 33.26638275 33.54285187 33.27079773 34.4624176 C33.27653389 36.34773918 33.27704655 38.23308289 33.27270508 40.1184082 C33.26954636 42.99794392 33.29300857 45.87645072 33.31835938 48.75585938 C33.32063261 50.58984246 33.32133575 52.42382829 33.3203125 54.2578125 C33.32952225 55.11628281 33.33873199 55.97475311 33.34822083 56.85923767 C33.31163246 61.60291781 33.00863018 64.70677657 29.95703125 68.57421875 C22.92731591 74.81649143 13.96986868 79.0714725 5.76171875 83.56689453 C4.21410449 84.43072792 2.69199973 85.33998923 1.17578125 86.2578125 C0.42296875 86.71285156 -0.32984375 87.16789062 -1.10546875 87.63671875 C-1.71519531 88.01957031 -2.32492188 88.40242188 -2.953125 88.796875 C-6.87502699 90.25567593 -10.32735492 90.3262447 -14.19897461 88.62915039 C-16.51247575 87.34957129 -18.74782085 85.98995092 -20.98046875 84.57421875 C-21.75970703 84.09726563 -22.53894531 83.6203125 -23.34179688 83.12890625 C-25.25114581 81.95752654 -27.15056476 80.7727094 -29.04296875 79.57421875 C-27.71499361 75.90275806 -26.08257757 72.98016605 -23.79296875 69.82421875 C-20.4379918 65.13991131 -17.21466598 60.38404532 -14.04296875 55.57421875 C-14.69136719 55.98929688 -15.33976563 56.404375 -16.0078125 56.83203125 C-23.63397542 61.62218352 -31.4241185 66.06957072 -39.29296875 70.44921875 C-51.28321037 77.05672835 -51.28321037 77.05672835 -63.03588867 84.07299805 C-66.57324041 86.26845976 -69.91977858 87.95168902 -73.859375 89.3203125 C-80.99921818 92.0608006 -80.99921818 92.0608006 -86.04296875 97.57421875 C-88.17280198 107.69804503 -87.06819434 118.36278632 -86.04296875 128.57421875 C-84.56896606 129.39563354 -84.56896606 129.39563354 -83.06518555 130.23364258 C-74.39943549 135.06714909 -65.80233475 140.01360999 -57.23046875 145.01171875 C-56.17472656 145.6267627 -55.11898437 146.24180664 -54.03125 146.87548828 C-53.03867188 147.45540527 -52.04609375 148.03532227 -51.0234375 148.6328125 C-50.13551514 149.15157959 -49.24759277 149.67034668 -48.33276367 150.20483398 C-46.53855595 151.27783869 -44.7824356 152.41457418 -43.04296875 153.57421875 C-39.89335263 153.19793009 -37.48851097 151.83273589 -34.77734375 150.24609375 C-33.96910156 149.77558594 -33.16085938 149.30507812 -32.328125 148.8203125 C-31.49152344 148.32660156 -30.65492188 147.83289063 -29.79296875 147.32421875 C-28.97183594 146.84597656 -28.15070313 146.36773437 -27.3046875 145.875 C-22.5293117 143.10106082 -22.5293117 143.10106082 -17.89648438 140.09960938 C-13.46833725 137.07207195 -10.5820169 135.68647063 -5.04296875 136.57421875 C-2.40078127 137.76579349 -0.11728202 138.95061152 2.33203125 140.44921875 C3.01177002 140.84979492 3.69150879 141.25037109 4.3918457 141.66308594 C5.8368232 142.51592442 7.27824462 143.37481265 8.71630859 144.23925781 C10.99533331 145.59703806 13.29407754 146.91390456 15.6015625 148.22265625 C17.1161531 149.08937614 18.63048318 149.95655147 20.14453125 150.82421875 C20.85077637 151.22366699 21.55702148 151.62311523 22.28466797 152.03466797 C22.95385254 152.42412598 23.62303711 152.81358398 24.3125 153.21484375 C24.89668701 153.55032227 25.48087402 153.88580078 26.08276367 154.23144531 C32.57944022 158.88583127 32.57944022 158.88583127 33.4103241 162.60110474 C33.5858065 165.09449918 33.597659 167.53989975 33.55078125 170.0390625 C33.55082153 170.94999161 33.55086182 171.86092072 33.55090332 172.79945374 C33.54555326 174.7217602 33.52799247 176.64406649 33.49902344 178.56616211 C33.45721871 181.49856914 33.45795323 184.42867367 33.46484375 187.36132812 C33.45434855 189.23308878 33.44140867 191.10483766 33.42578125 192.9765625 C33.42557983 193.84860825 33.42537842 194.72065399 33.4251709 195.61912537 C33.32829409 200.6376199 32.88377661 204.3108746 29.95703125 208.57421875 C27.57202148 210.4453125 27.57202148 210.4453125 24.765625 212.01171875 C23.73759766 212.59695313 22.70957031 213.1821875 21.65039062 213.78515625 C20.03874023 214.67074219 20.03874023 214.67074219 18.39453125 215.57421875 C16.28877863 216.7612153 14.18330701 217.9487105 12.078125 219.13671875 C11.04671387 219.70648438 10.01530273 220.27625 8.95263672 220.86328125 C6.11857367 222.48195394 3.41233772 224.22935091 0.6796875 226.01171875 C-2.77674867 228.05407997 -5.71119403 229.5532935 -9.87207031 229.19628906 C-14.99410937 227.72857027 -19.42558804 224.73662601 -23.91796875 221.94921875 C-25.45517578 221.02302734 -25.45517578 221.02302734 -27.0234375 220.078125 C-29.05873614 218.8497046 -31.08722036 217.6099161 -33.10839844 216.35839844 C-35.02297583 215.19436087 -36.96096356 214.06774959 -38.92285156 212.98535156 C-39.81069336 212.49131836 -40.69853516 211.99728516 -41.61328125 211.48828125 C-42.39719238 211.06756348 -43.18110352 210.6468457 -43.98876953 210.21337891 C-46.81959294 207.95450698 -47.7907013 205.96904927 -49.04296875 202.57421875 C-49.18451423 199.84199986 -49.18334267 197.3581944 -49.02734375 194.6484375 C-48.99114354 193.11401402 -48.95870955 191.57949791 -48.9296875 190.04492188 C-48.87228975 187.65114129 -48.7933127 185.26741258 -48.64892578 182.87719727 C-48.16060388 175.06507629 -48.16060388 175.06507629 -50.04296875 167.57421875 C-53.55149871 163.65314828 -58.29721214 161.54022484 -63.0484314 159.47494507 C-66.35726118 157.98068874 -69.46476319 156.13918654 -72.60546875 154.32421875 C-73.32992187 153.91977539 -74.054375 153.51533203 -74.80078125 153.09863281 C-89.40772201 144.93360586 -103.71242856 136.21272195 -118.04296875 127.57421875 C-117.34429687 128.59902344 -116.645625 129.62382812 -115.92578125 130.6796875 C-115.00626384 132.04019796 -114.08700668 133.40088435 -113.16796875 134.76171875 C-112.70777344 135.43525391 -112.24757812 136.10878906 -111.7734375 136.80273438 C-109.42287057 140.29451858 -107.4015284 143.5531945 -106.04296875 147.57421875 C-108.69291076 149.27418155 -111.35378075 150.93787322 -114.04296875 152.57421875 C-114.9453125 153.12464844 -115.84765625 153.67507812 -116.77734375 154.2421875 C-117.710625 154.78488281 -118.64390625 155.32757813 -119.60546875 155.88671875 C-120.47300781 156.39847656 -121.34054688 156.91023437 -122.234375 157.4375 C-125.81819646 158.88797572 -128.19647492 159.00622238 -132.04296875 158.57421875 C-134.66785306 157.40471584 -136.92535635 156.24320077 -139.35546875 154.76171875 C-140.0311792 154.3637207 -140.70688965 153.96572266 -141.40307617 153.55566406 C-142.85492853 152.69631323 -144.30249027 151.82967991 -145.74609375 150.95654297 C-148.14355885 149.51368079 -150.56013505 148.10724101 -152.98046875 146.703125 C-154.60632793 145.74494597 -156.23134696 144.78533973 -157.85546875 143.82421875 C-158.62608643 143.37715576 -159.3967041 142.93009277 -160.19067383 142.46948242 C-160.91150146 142.03482666 -161.6323291 141.6001709 -162.375 141.15234375 C-163.01155518 140.7749707 -163.64811035 140.39759766 -164.30395508 140.00878906 C-167.18626661 137.63107425 -168.8026309 135.31111768 -169.32426453 131.5413208 C-169.45675472 129.04724441 -169.48492088 126.57181114 -169.4765625 124.07421875 C-169.48180435 123.16091797 -169.4870462 122.24761719 -169.4924469 121.30664062 C-169.49885582 119.38021865 -169.49754475 117.45375749 -169.48901367 115.52734375 C-169.48049684 112.58392597 -169.50929134 109.64244531 -169.54101562 106.69921875 C-169.54262765 104.82421933 -169.54205007 102.94921648 -169.5390625 101.07421875 C-169.55029648 100.19701172 -169.56153046 99.31980469 -169.57310486 98.41601562 C-169.52645731 94.31684031 -169.39724206 92.13822631 -167.17236328 88.59619141 C-163.30339839 84.92240475 -158.69766383 82.46584586 -154.11474609 79.79980469 C-151.81436393 78.43898469 -149.54896276 77.02782655 -147.28125 75.61328125 C-145.61906599 74.59931491 -143.95630804 73.58628882 -142.29296875 72.57421875 C-141.5136499 72.08099121 -140.73433105 71.58776367 -139.93139648 71.07958984 C-134.62626083 67.90985118 -130.21733117 66.11988551 -124.04296875 67.57421875 C-119.91155599 69.3411989 -116.12969981 71.5574517 -112.29296875 73.88671875 C-111.27847656 74.48162109 -110.26398438 75.07652344 -109.21875 75.68945312 C-101.73212216 80.09190511 -101.73212216 80.09190511 -98.53027344 82.33276367 C-96.13458586 83.78409799 -96.13458586 83.78409799 -93.55834961 83.44165039 C-90.73057171 82.46648832 -88.36761616 81.22696143 -85.796875 79.6953125 C-84.80075195 79.10709717 -83.80462891 78.51888184 -82.77832031 77.9128418 C-81.7312793 77.28547119 -80.68423828 76.65810059 -79.60546875 76.01171875 C-77.44548747 74.73538094 -75.28533194 73.45933795 -73.125 72.18359375 C-72.08166504 71.56419922 -71.03833008 70.94480469 -69.96337891 70.30664062 C-66.25146377 68.10468862 -62.52985499 65.92098122 -58.79296875 63.76171875 C-57.7565625 63.15714844 -56.72015625 62.55257812 -55.65234375 61.9296875 C-53.36759155 60.74284766 -51.52301708 60.13489953 -49.04296875 59.57421875 C-49.0586792 58.50985596 -49.07438965 57.44549316 -49.09057617 56.34887695 C-49.14499929 52.38866789 -49.17936368 48.42849171 -49.20776367 44.46801758 C-49.22282215 42.75604691 -49.2432733 41.04411464 -49.26928711 39.33227539 C-49.30580065 36.8672537 -49.32272437 34.4027434 -49.3359375 31.9375 C-49.35142136 31.17585037 -49.36690521 30.41420074 -49.38285828 29.62947083 C-49.38429419 25.06449822 -48.92443806 22.15906087 -46.04296875 18.57421875 C-39.52145692 12.94814967 -31.59759455 8.87278206 -24.10546875 4.69921875 C-22.56536133 3.82910156 -22.56536133 3.82910156 -20.99414062 2.94140625 C-13.40313871 -1.31951024 -8.5387031 -4.00080441 0 0 Z " fill="#FCFCFC" transform="translate(258.04296875,86.42578125)"/>
<path d="M0 0 C0.66 0 1.32 0 2 0 C0.4904458 4.52866261 -1.73516434 8.51064842 -5 12 C-7.625 13.0625 -7.625 13.0625 -10 13 C-10.99 12.34 -11.98 11.68 -13 11 C-13 10.01 -13 9.02 -13 8 C-10.41015625 6.2109375 -10.41015625 6.2109375 -7.0625 4.375 C-3.3110735 2.49832828 -3.3110735 2.49832828 0 0 Z " fill="#252729" transform="translate(242,142)"/>
<path d="M0 0 C4.1388248 1.46076169 7.65818496 3.12448474 11 6 C11.5 9.625 11.5 9.625 11 13 C10.34 13.66 9.68 14.32 9 15 C7.49428254 12.87885041 5.99531321 10.75346385 4.5 8.625 C4.07074219 8.02171875 3.64148438 7.4184375 3.19921875 6.796875 C0 2.2265625 0 2.2265625 0 0 Z " fill="#26272B" transform="translate(140,214)"/>
<path d="M0 0 C0.99 0.33 1.98 0.66 3 1 C2.67 1.99 2.34 2.98 2 4 C1.88734453 5.36515314 1.82417414 6.73477212 1.79467773 8.10424805 C1.77473251 8.92487228 1.75478729 9.74549652 1.73423767 10.59098816 C1.71752518 11.47232925 1.70081268 12.35367035 1.68359375 13.26171875 C1.66281265 14.16751175 1.64203156 15.07330475 1.62062073 16.00654602 C1.55523442 18.90012016 1.49629096 21.79378507 1.4375 24.6875 C1.3943044 26.64909793 1.35068977 28.61068668 1.30664062 30.57226562 C1.19956418 35.38141739 1.09826586 40.19066046 1 45 C0.67 45 0.34 45 0 45 C-0.02505615 43.77369873 -0.0501123 42.54739746 -0.07592773 41.28393555 C-0.17003054 36.7384173 -0.27024433 32.19305083 -0.37231445 27.64770508 C-0.41565241 25.67964221 -0.45732832 23.71154202 -0.49731445 21.7434082 C-0.55504445 18.9160639 -0.61873116 16.08890729 -0.68359375 13.26171875 C-0.70030624 12.38037766 -0.71701874 11.49903656 -0.73423767 10.59098816 C-0.75418289 9.77036392 -0.77412811 8.94973969 -0.79467773 8.10424805 C-0.81022202 7.38254929 -0.8257663 6.66085052 -0.84178162 5.9172821 C-0.94195257 3.77891856 -0.94195257 3.77891856 -2 1 C-1.34 0.67 -0.68 0.34 0 0 Z " fill="#36383B" transform="translate(291,105)"/>
<path d="M0 0 C1.65 0.33 3.3 0.66 5 1 C1.80009492 3.74277578 -1.00499382 5.6302836 -5 7 C-5.66 6.01 -6.32 5.02 -7 4 C-6.34 3.01 -5.68 2.02 -5 1 C-3.35 1.33 -1.7 1.66 0 2 C0 1.34 0 0.68 0 0 Z " fill="#232429" transform="translate(231,89)"/>
<path d="M0 0 C-0.33 1.32 -0.66 2.64 -1 4 C-2.65 4.33 -4.3 4.66 -6 5 C-6.33 5.99 -6.66 6.98 -7 8 C-9.97 7.505 -9.97 7.505 -13 7 C-4.79310345 0 -4.79310345 0 0 0 Z " fill="#343538" transform="translate(150,236)"/>
<path d="M0 0 C2.4375 0.75 2.4375 0.75 5 2 C5.6875 4.0625 5.6875 4.0625 6 6 C6.66 6.33 7.32 6.66 8 7 C7.67 8.32 7.34 9.64 7 11 C5.66104368 9.33784732 4.32869858 7.67036393 3 6 C2.4225 5.278125 1.845 4.55625 1.25 3.8125 C0 2 0 2 0 0 Z " fill="#37383B" transform="translate(140,214)"/>
<path d="M0 0 C2.475 0.99 2.475 0.99 5 2 C4.67 3.65 4.34 5.3 4 7 C1.5625 6.625 1.5625 6.625 -1 6 C-1.33 5.34 -1.66 4.68 -2 4 C-1.34 4 -0.68 4 0 4 C0 2.68 0 1.36 0 0 Z " fill="#212428" transform="translate(212,295)"/>
<path d="M0 0 C-1.31224548 3.93673644 -2.91910327 6.22719294 -6 9 C-6.66 7.35 -7.32 5.7 -8 4 C-2.25 0 -2.25 0 0 0 Z " fill="#404243" transform="translate(244,142)"/>
<path d="M0 0 C0.66 0.33 1.32 0.66 2 1 C2 2.32 2 3.64 2 5 C0.1875 5.6875 0.1875 5.6875 -2 6 C-3.75 4.5625 -3.75 4.5625 -5 3 C-2.625 1.4375 -2.625 1.4375 0 0 Z " fill="#303336" transform="translate(217,235)"/>
<path d="M0 0 C-1.88807863 2.69725519 -3.19824644 4.13216429 -6 6 C-6 5.34 -6 4.68 -6 4 C-6.66 4 -7.32 4 -8 4 C-7.67 3.01 -7.34 2.02 -7 1 C-4.53721199 -0.231394 -2.7204945 -0.07159196 0 0 Z " fill="#292A2E" transform="translate(194,173)"/>
<path d="M0 0 C4.55384615 -0.36923077 4.55384615 -0.36923077 6.8125 1.5 C7.204375 1.995 7.59625 2.49 8 3 C5.08517222 3.80967438 3.53886783 4.21845993 0.6875 3.0625 C0.130625 2.711875 -0.42625 2.36125 -1 2 C-0.67 1.34 -0.34 0.68 0 0 Z " fill="#222227" transform="translate(171,234)"/>
<path d="M0 0 C0.99 0.33 1.98 0.66 3 1 C3 1.66 3 2.32 3 3 C2.34 3 1.68 3 1 3 C1.33 3.99 1.66 4.98 2 6 C-0.91517292 4.92598892 -2.77810176 4.22189824 -5 2 C-3.35 1.67 -1.7 1.34 0 1 C0 0.67 0 0.34 0 0 Z " fill="#34363A" transform="translate(272,90)"/>
<path d="M0 0 C1.98 0.99 3.96 1.98 6 3 C4.68 3.99 3.36 4.98 2 6 C0 5 0 5 -0.6875 3 C-0.790625 2.34 -0.89375 1.68 -1 1 C-0.67 0.67 -0.34 0.34 0 0 Z " fill="#222228" transform="translate(224,302)"/>
<path d="M0 0 C0 0.99 0 1.98 0 3 C-3.96 4.98 -3.96 4.98 -8 7 C-8.33 6.34 -8.66 5.68 -9 5 C-6.03 3.35 -3.06 1.7 0 0 Z " fill="#434647" transform="translate(184,176)"/>
<path d="M0 0 C2.475 0.99 2.475 0.99 5 2 C4.01 3.485 4.01 3.485 3 5 C2.01 5 1.02 5 0 5 C0 3.35 0 1.7 0 0 Z " fill="#28292C" transform="translate(241,312)"/>
<path d="M0 0 C1.485 0.99 1.485 0.99 3 2 C5.15274948 1.69159401 5.15274948 1.69159401 7 1 C4.82575883 3.50037734 3.26954202 4.43628586 0 5 C-0.5625 3.0625 -0.5625 3.0625 -1 1 C-0.67 0.67 -0.34 0.34 0 0 Z " fill="#2D2E32" transform="translate(118,153)"/>
<path d="M0 0 C0.66 0.66 1.32 1.32 2 2 C1.67 2.99 1.34 3.98 1 5 C0.34 5 -0.32 5 -1 5 C-1 4.34 -1 3.68 -1 3 C-2.65 2.67 -4.3 2.34 -6 2 C-6 1.67 -6 1.34 -6 1 C-3.125 0.375 -3.125 0.375 0 0 Z " fill="#26272C" transform="translate(254,314)"/>
</svg>
